<svg width="25" height="25" viewBox="0 0 25 25" fill="none" xmlns="http://www.w3.org/2000/svg">
<path d="M3.6618 11.3006C3.47395 11.4877 3.36812 11.7418 3.36758 12.007C3.36704 12.2722 3.47183 12.5267 3.65892 12.7146L9.3044 18.3831C9.39645 18.4788 9.50664 18.5552 9.62854 18.6079C9.75044 18.6605 9.8816 18.6884 10.0144 18.6898C10.1472 18.6912 10.2789 18.6662 10.4019 18.6161C10.5249 18.5661 10.6367 18.4921 10.7308 18.3984C10.8248 18.3047 10.8993 18.1932 10.9499 18.0704C11.0004 17.9476 11.026 17.816 11.0251 17.6832C11.0242 17.5504 10.9969 17.4191 10.9447 17.297C10.8926 17.1749 10.8166 17.0644 10.7213 16.972L6.77932 13.0139L20.0223 13.0409C20.2875 13.0414 20.5421 12.9366 20.73 12.7494C20.9179 12.5623 21.0238 12.3081 21.0243 12.0429C21.0249 11.7777 20.92 11.5231 20.7329 11.3352C20.5457 11.1473 20.2916 11.0414 20.0264 11.0409L6.78339 11.0139L10.7414 7.07199C10.924 6.88376 11.0253 6.63136 11.0235 6.36916C11.0218 6.10696 10.9171 5.85594 10.7321 5.67015C10.5471 5.48437 10.2965 5.37869 10.0343 5.37587C9.77208 5.37306 9.51928 5.47334 9.3303 5.65512L3.6618 11.3006Z" fill="black"/>
</svg>
