<svg width="26" height="22" viewBox="0 0 26 22" fill="none" xmlns="http://www.w3.org/2000/svg">
<g filter="url(#filter0_d_0_4395)">
<path d="M4.3078 5.93829C4.11995 6.12543 4.01411 6.37953 4.01357 6.64469C4.01303 6.90985 4.11783 7.16438 4.30492 7.35228L9.9504 13.0208C10.0424 13.1165 10.1526 13.1929 10.2745 13.2455C10.3964 13.2982 10.5276 13.3261 10.6604 13.3275C10.7931 13.3289 10.9249 13.3039 11.0479 13.2538C11.1709 13.2038 11.2827 13.1298 11.3768 13.0361C11.4708 12.9424 11.5453 12.8309 11.5959 12.7081C11.6464 12.5853 11.672 12.4537 11.6711 12.3209C11.6702 12.1881 11.6429 12.0568 11.5907 11.9347C11.5386 11.8126 11.4626 11.7021 11.3673 11.6097L7.42532 7.65164L20.6683 7.67859C20.9335 7.67913 21.1881 7.57429 21.376 7.38713C21.5639 7.19998 21.6698 6.94584 21.6703 6.68062C21.6709 6.41541 21.566 6.16084 21.3789 5.97292C21.1917 5.78501 20.9376 5.67913 20.6724 5.67859L7.42939 5.65164L11.3874 1.70969C11.57 1.52146 11.6713 1.26906 11.6695 1.00686C11.6678 0.744658 11.5631 0.493632 11.3781 0.307847C11.1931 0.122062 10.9425 0.016382 10.6803 0.01357C10.4181 0.0107579 10.1653 0.111038 9.9763 0.292812L4.3078 5.93829Z" fill="white"/>
<path d="M10.3107 12.6742L10.3108 12.6741L10.3047 12.668L4.65925 6.99951C4.65923 6.99949 4.65921 6.99947 4.65919 6.99945C4.56568 6.9055 4.5133 6.77826 4.51357 6.64571C4.51384 6.51315 4.56674 6.38613 4.66063 6.29256C4.66065 6.29254 4.66067 6.29252 4.66068 6.29251L10.3255 0.650666C10.4197 0.561358 10.545 0.512148 10.6749 0.513541C10.806 0.514947 10.9313 0.567787 11.0238 0.66068C11.1163 0.753573 11.1687 0.879086 11.1695 1.01019C11.1704 1.14008 11.1207 1.26516 11.031 1.35899L7.07655 5.29737L6.22127 6.14918L7.42837 6.15164L20.6713 6.17859C20.8039 6.17886 20.931 6.2318 21.0246 6.32576C21.1182 6.41972 21.1706 6.547 21.1703 6.67961C21.1701 6.81222 21.1171 6.93929 21.0232 7.03286C20.9292 7.12644 20.8019 7.17886 20.6693 7.17859L7.42633 7.15164L6.21923 7.14918L7.07105 8.00447L11.013 11.9625L11.0129 11.9626L11.0192 11.9686C11.0668 12.0148 11.1048 12.0701 11.1309 12.1311C11.157 12.1922 11.1706 12.2578 11.1711 12.3242C11.1715 12.3906 11.1587 12.4564 11.1335 12.5178C11.1082 12.5792 11.071 12.635 11.0239 12.6818C10.9769 12.7287 10.921 12.7657 10.8595 12.7907C10.798 12.8157 10.7321 12.8282 10.6657 12.8275C10.5993 12.8268 10.5338 12.8129 10.4728 12.7865C10.4119 12.7602 10.3568 12.722 10.3107 12.6742Z" stroke="black"/>
</g>
<defs>
<filter id="filter0_d_0_4395" x="0.0136719" y="0.0135498" width="25.6567" height="21.314" filterUnits="userSpaceOnUse" color-interpolation-filters="sRGB">
<feFlood flood-opacity="0" result="BackgroundImageFix"/>
<feColorMatrix in="SourceAlpha" type="matrix" values="0 0 0 0 0 0 0 0 0 0 0 0 0 0 0 0 0 0 127 0" result="hardAlpha"/>
<feOffset dy="4"/>
<feGaussianBlur stdDeviation="2"/>
<feComposite in2="hardAlpha" operator="out"/>
<feColorMatrix type="matrix" values="0 0 0 0 0 0 0 0 0 0 0 0 0 0 0 0 0 0 0.25 0"/>
<feBlend mode="normal" in2="BackgroundImageFix" result="effect1_dropShadow_0_4395"/>
<feBlend mode="normal" in="SourceGraphic" in2="effect1_dropShadow_0_4395" result="shape"/>
</filter>
</defs>
</svg>
